<svg width="36" height="36" viewBox="0 0 36 36" fill="none" xmlns="http://www.w3.org/2000/svg">
<path d="M20.5408 18.3817L27.1217 11.8151C27.4099 11.5269 27.5718 11.136 27.5718 10.7284C27.5718 10.3208 27.4099 9.92985 27.1217 9.64162C26.8335 9.35339 26.4426 9.19147 26.0351 9.19147C25.6275 9.19147 25.2367 9.35339 24.9485 9.64162L18.3829 16.2234L11.8173 9.64162C11.5291 9.35339 11.1383 9.19147 10.7307 9.19147C10.3232 9.19147 9.93229 9.35339 9.64411 9.64162C9.35592 9.92985 9.19402 10.3208 9.19402 10.7284C9.19402 11.136 9.35592 11.5269 9.64411 11.8151L16.225 18.3817L9.64411 24.9482C9.50066 25.0905 9.38681 25.2597 9.30911 25.4463C9.23141 25.6328 9.19141 25.8329 9.19141 26.0349C9.19141 26.237 9.23141 26.437 9.30911 26.6236C9.38681 26.8101 9.50066 26.9794 9.64411 27.1217C9.78638 27.2651 9.95565 27.379 10.1421 27.4567C10.3286 27.5344 10.5287 27.5744 10.7307 27.5744C10.9328 27.5744 11.1328 27.5344 11.3193 27.4567C11.5058 27.379 11.6751 27.2651 11.8173 27.1217L18.3829 20.5399L24.9485 27.1217C25.0907 27.2651 25.26 27.379 25.4465 27.4567C25.633 27.5344 25.833 27.5744 26.0351 27.5744C26.2371 27.5744 26.4371 27.5344 26.6236 27.4567C26.8101 27.379 26.9794 27.2651 27.1217 27.1217C27.2651 26.9794 27.379 26.8101 27.4567 26.6236C27.5344 26.437 27.5744 26.237 27.5744 26.0349C27.5744 25.8329 27.5344 25.6328 27.4567 25.4463C27.379 25.2597 27.2651 25.0905 27.1217 24.9482L20.5408 18.3817Z" fill="#010101" fill-opacity="0.6"/>
</svg>
